<?xml version="1.0" standalone="no"?>
<!DOCTYPE svg PUBLIC "-//W3C//DTD SVG 20010904//EN"
 "http://www.w3.org/TR/2001/REC-SVG-20010904/DTD/svg10.dtd">
<svg version="1.0" xmlns="http://www.w3.org/2000/svg"
 width="516.000000pt" height="516.000000pt" viewBox="0 0 516.000000 516.000000"
 preserveAspectRatio="xMidYMid meet">
<metadata>
Created by potrace 1.16, written by Peter Selinger 2001-2019
</metadata>
<g transform="translate(0.000000,516.000000) scale(0.100000,-0.100000)"
fill="#000000" stroke="none">
<path d="M2405 4504 c-432 -78 -784 -383 -927 -804 -48 -143 -58 -227 -58
-501 l0 -249 73 -36 c95 -47 203 -129 259 -196 52 -61 148 -246 173 -331 16
-55 18 -58 43 -53 139 27 612 53 677 37 22 -5 112 -12 200 -15 88 -4 205 -12
260 -20 55 -8 100 -14 100 -13 1 1 9 29 19 62 20 65 86 200 114 231 9 10 37
43 62 73 65 79 161 154 263 207 l89 46 -5 291 c-4 309 -8 333 -65 497 -113
322 -417 615 -753 723 -159 52 -393 75 -524 51z"/>
<path d="M964 2696 c-86 -27 -207 -137 -247 -225 -32 -69 -30 -199 2 -266 31
-63 132 -164 191 -192 25 -11 53 -29 62 -40 21 -22 118 -405 118 -462 0 -105
64 -233 170 -335 73 -72 108 -93 233 -144 24 -10 27 -16 27 -61 0 -33 -8 -65
-26 -99 -33 -64 -27 -99 28 -158 68 -74 137 -81 205 -21 70 62 86 136 42 199
-13 17 -19 44 -19 78 l0 53 813 -8 c446 -4 815 -9 820 -12 15 -9 7 -107 -14
-150 -27 -56 -19 -93 33 -149 44 -48 93 -69 139 -59 69 15 149 124 134 183 -4
15 -17 41 -31 59 -18 24 -24 44 -24 81 0 49 1 50 34 56 19 4 66 22 103 41 158
79 303 293 303 447 0 40 84 397 102 435 6 12 36 35 67 50 120 60 217 193 228
314 6 65 -11 152 -38 191 -11 14 -19 31 -19 36 0 18 -108 109 -157 133 -33 16
-71 24 -128 27 -138 7 -256 -36 -392 -142 -153 -120 -233 -288 -233 -493 l0
-93 -61 0 c-33 0 -97 9 -142 21 -203 52 -670 88 -952 75 -152 -7 -355 -35
-472 -65 -100 -26 -188 -28 -197 -5 -3 9 -6 52 -6 97 0 153 -42 266 -145 393
-90 112 -186 176 -312 208 -72 19 -182 20 -239 2z"/>
</g>
</svg>
